HIERARCHY
ROOT Hips
{
	OFFSET 0.000000 0.000000 0.000000
	CHANNELS 6 Xposition Yposition Zposition Zrotation Yrotation Xrotation 
	JOINT LHipJoint
	{
		OFFSET 0.000000 0.000000 0.000000
		CHANNELS 3 Zrotation Yrotation Xrotation
		JOINT LeftUpLeg
		{
			OFFSET 1.363060 -1.794630 0.839290
			CHANNELS 3 Zrotation Yrotation Xrotation
			JOINT LeftLeg
			{
				OFFSET 2.448110 -6.726130 0.000000
				CHANNELS 3 Zrotation Yrotation Xrotation
				JOINT LeftFoot
				{
					OFFSET 2.562200 -7.039590 0.000000
					CHANNELS 3 Zrotation Yrotation Xrotation
					JOINT LeftToeBase
					{
						OFFSET 0.157640 -0.433110 2.322550
						CHANNELS 3 Zrotation Yrotation Xrotation
						End Site
						{
							OFFSET 0.000000 0.000000 0.000000
						}
					}
				}
			}
		}
	}
	JOINT RHipJoint
	{
		OFFSET 0.000000 0.000000 0.000000
		CHANNELS 3 Zrotation Yrotation Xrotation
		JOINT RightUpLeg
		{
			OFFSET -1.305520 -1.794630 0.839290
			CHANNELS 3 Zrotation Yrotation Xrotation
			JOINT RightLeg
			{
				OFFSET -2.542530 -6.985550 0.000000
				CHANNELS 3 Zrotation Yrotation Xrotation
				JOINT RightFoot
				{
					OFFSET -2.568260 -7.056230 0.000000
					CHANNELS 3 Zrotation Yrotation Xrotation
					JOINT RightToeBase
					{
						OFFSET -0.164730 -0.452590 2.363150
						CHANNELS 3 Zrotation Yrotation Xrotation
						End Site
						{
							OFFSET 0.000000 0.000000 0.000000
						}
					}
				}
			}
		}
	}
	JOINT LowerBack
	{
		OFFSET 0.000000 0.000000 0.000000
		CHANNELS 3 Zrotation Yrotation Xrotation
		JOINT Spine
		{
			OFFSET 0.028270 2.035590 -0.193380
			CHANNELS 3 Zrotation Yrotation Xrotation
			JOINT Spine1
			{
				OFFSET 0.056720 2.048850 -0.042750
				CHANNELS 3 Zrotation Yrotation Xrotation
				JOINT Neck
				{
					OFFSET 0.000000 0.000000 0.000000
					CHANNELS 3 Zrotation Yrotation Xrotation
					JOINT Neck1
					{
						OFFSET -0.054170 1.746240 0.172020
						CHANNELS 3 Zrotation Yrotation Xrotation
						JOINT Head
						{
							OFFSET 0.104070 1.761360 -0.123970
							CHANNELS 3 Zrotation Yrotation Xrotation
							End Site
							{
								OFFSET 0.000000 0.000000 0.000000
							}
						}
					}
				}
				JOINT LeftShoulder
				{
					OFFSET 0.000000 0.000000 0.000000
					CHANNELS 3 Zrotation Yrotation Xrotation
					JOINT LeftArm
					{
						OFFSET 3.362410 1.200890 -0.311210
						CHANNELS 3 Zrotation Yrotation Xrotation
						JOINT LeftForeArm
						{
							OFFSET 4.983000 -0.000000 -0.000000
							CHANNELS 3 Zrotation Yrotation Xrotation
							JOINT LeftHand
							{
								OFFSET 3.483560 -0.000000 -0.000000
								CHANNELS 3 Zrotation Yrotation Xrotation
								JOINT LeftFingerBase
								{
									OFFSET 0.000000 0.000000 0.000000
									CHANNELS 3 Zrotation Yrotation Xrotation
									JOINT LeftHandIndex1
									{
										OFFSET 0.715260 -0.000000 -0.000000
										CHANNELS 3 Zrotation Yrotation Xrotation
										End Site
										{
											OFFSET 0.000000 0.000000 0.000000
										}
									}
								}
								JOINT LThumb
								{
									OFFSET 0.000000 0.000000 0.000000
									CHANNELS 3 Zrotation Yrotation Xrotation
									End Site
									{
										OFFSET 0.000000 0.000000 0.000000
									}
								}
							}
						}
					}
				}
				JOINT RightShoulder
				{
					OFFSET 0.000000 0.000000 0.000000
					CHANNELS 3 Zrotation Yrotation Xrotation
					JOINT RightArm
					{
						OFFSET -3.136600 1.374050 -0.404650
						CHANNELS 3 Zrotation Yrotation Xrotation
						JOINT RightForeArm
						{
							OFFSET -5.241900 -0.000000 -0.000000
							CHANNELS 3 Zrotation Yrotation Xrotation
							JOINT RightHand
							{
								OFFSET -3.444170 -0.000000 -0.000000
								CHANNELS 3 Zrotation Yrotation Xrotation
								JOINT RightFingerBase
								{
									OFFSET 0.000000 0.000000 0.000000
									CHANNELS 3 Zrotation Yrotation Xrotation
									JOINT RightHandIndex1
									{
										OFFSET -0.622530 -0.000000 -0.000000
										CHANNELS 3 Zrotation Yrotation Xrotation
										End Site
										{
											OFFSET 0.000000 0.000000 0.000000
										}
									}
								}
								JOINT RThumb
								{
									OFFSET 0.000000 0.000000 0.000000
									CHANNELS 3 Zrotation Yrotation Xrotation
									End Site
									{
										OFFSET 0.000000 0.000000 0.000000
									}
								}
							}
						}
					}
				}
			}
		}
	}
}
MOTION
Frames: 9
Frame Time: 0.008333
-11.790600 17.276283 19.493169 -14.761592 75.486608 -11.991267 0.638420 2.512135 2.797754 -9.584906 -6.314621 -17.672095 9.580466 16.121103 57.624612 6.426047 -19.073405 -51.072022 1.077700 -6.598600 -18.531500 -4.886154 -3.619775 2.682958 24.290212 2.523997 -23.190772 -9.376422 -15.207441 55.296285 0.807004 32.960880 -27.780940 -0.104300 2.082400 -5.733500 4.555561 1.567763 3.937104 -14.167230 2.617040 16.937897 3.173840 1.529111 -12.287829 -5.959918 -10.746751 -22.823874 7.122206 -12.246973 40.824330 -0.223200 -3.060100 18.061800 3.877365 -6.780346 0.507476 -83.989565 10.336300 39.616398 44.883953 -43.986715 -20.079796 0.854057 0.132412 -31.633493 29.859981 12.336398 7.035600 -7.125000 0.000000 0.000000 1.635300 44.578400 -0.017000 2.553412 11.032385 0.207927 89.042538 8.997448 27.240521 -18.141469 17.280217 -3.137177 0.405152 -0.598711 -1.331881 -27.295426 -2.467450 0.930700 7.125000 0.000000 0.000000 -0.894300 -31.982200 -0.284900 
-11.757587 17.271513 19.842279 -15.080474 75.494330 -12.170034 0.629259 2.496202 2.778324 -9.308611 -6.689385 -17.676766 9.631486 16.167942 57.849501 6.321901 -19.351667 -50.761838 1.095500 -6.651100 -18.685800 -4.892634 -3.618802 2.635933 24.479639 2.276275 -23.173097 -9.359909 -15.202395 55.246457 0.812819 33.096764 -27.837948 -0.101700 2.056900 -5.663000 4.634537 1.742111 4.148661 -14.535300 2.884429 16.763401 3.161890 1.668679 -12.390360 -5.877830 -10.808381 -22.868526 7.313439 -12.424807 40.744514 -0.196800 -3.091400 18.047200 3.945014 -6.769498 0.535478 -83.724132 11.127595 38.160864 45.588557 -44.399447 -20.532160 0.856677 0.152590 -31.939982 29.712352 12.559109 7.102300 -7.125000 0.000000 0.000000 1.468600 44.796000 -0.007400 2.554451 11.039935 0.209968 89.017245 9.828166 27.159023 -17.974760 17.058749 -3.060310 0.406524 -0.596607 -0.870341 -26.856620 -2.751106 1.063700 7.125000 0.000000 0.000000 -0.544000 -32.302400 -0.169100 
-11.724949 17.268240 20.189518 -15.530788 75.427778 -12.323368 0.617506 2.476135 2.739453 -8.937411 -6.932518 -17.905566 9.689923 16.228901 58.111675 6.187280 -19.611282 -50.346856 1.091200 -6.638400 -18.648500 -4.908623 -3.616106 2.590692 24.755269 2.357135 -23.215565 -9.336405 -15.196312 55.174672 0.775863 33.198681 -28.056934 -0.113800 2.174500 -5.988300 4.792587 2.009620 4.292490 -14.915759 3.258969 16.458389 3.091823 1.860168 -12.459560 -5.888460 -10.979546 -22.872424 7.554539 -12.749258 40.670058 -0.170500 -3.183800 18.029200 4.021346 -6.753343 0.571167 -83.175970 12.004534 37.266918 46.645947 -44.983587 -21.289330 0.859886 0.182946 -32.635340 29.733938 12.797179 7.223800 -7.125000 0.000000 0.000000 1.453900 45.051200 0.001800 2.553701 11.041971 0.222562 88.918361 10.530457 27.025960 -17.960381 17.029958 -3.035002 0.404743 -0.583064 -0.803872 -26.414198 -2.996259 1.176300 7.125000 0.000000 0.000000 -0.182500 -32.588000 -0.055500 
-11.689785 17.263658 20.534325 -16.091839 75.420945 -12.628821 0.607484 2.459913 2.713887 -8.584981 -7.266675 -18.078124 9.750118 16.286218 58.379843 6.037087 -19.968552 -49.891731 1.070000 -6.575800 -18.464500 -4.920927 -3.616567 2.542775 25.043785 2.244969 -23.217229 -9.297085 -15.175454 55.034576 0.768346 33.329516 -28.163981 -0.108800 2.127000 -5.856800 4.897886 2.195464 4.429222 -15.169216 3.520025 16.203715 3.021616 1.994423 -12.524903 -5.906852 -11.093143 -22.879803 7.805289 -12.984895 40.609529 -0.121100 -3.239500 18.011400 4.075885 -6.722681 0.595490 -82.846087 12.836153 36.110475 47.708366 -45.555613 -22.055503 0.865058 0.205130 -33.188326 29.759038 13.014017 7.339200 -7.125000 0.000000 0.000000 1.444900 45.290800 0.010400 2.538765 11.029486 0.247522 88.618344 11.029815 27.720376 -18.144440 17.253178 -3.091543 0.413408 -0.548886 -1.436456 -26.126600 -3.444768 1.401800 7.125000 0.000000 0.000000 0.057300 -33.119400 0.016700 
-11.651349 17.265622 20.876420 -16.951865 75.465166 -13.185647 0.596316 2.436325 2.678447 -8.152623 -7.594538 -18.305464 9.812797 16.345063 58.647152 5.871450 -20.216514 -49.360185 1.086100 -6.623600 -18.604800 -4.937326 -3.617384 2.484130 25.351505 2.172338 -23.179994 -9.236308 -15.140899 54.812571 0.751235 33.444876 -28.306063 -0.118300 2.217000 -6.105800 5.173819 2.420684 4.567180 -15.524937 3.851364 15.882972 2.870806 2.148913 -12.575602 -5.934655 -11.289414 -22.833356 8.086051 -13.350040 40.570607 -0.083900 -3.338700 18.006300 4.148584 -6.705669 0.626135 -82.329748 13.690917 35.321024 48.983400 -46.202151 -23.010487 0.870644 0.236777 -33.994675 30.084813 13.211060 7.533600 -7.125000 0.000000 0.000000 1.716600 45.547300 0.023200 2.538440 11.025571 0.264973 88.523328 11.588428 27.853723 -18.295785 17.439326 -3.139035 0.424170 -0.526665 -1.615787 -26.075631 -3.854175 1.613600 7.125000 0.000000 0.000000 0.100900 -33.599500 0.028200 
-11.611883 17.268427 21.225623 -17.702070 75.381330 -13.627600 0.576849 2.411902 2.651277 -7.664683 -7.761621 -18.535801 9.858499 16.400136 58.886373 5.627701 -20.815190 -48.622134 1.038400 -6.481200 -18.187000 -4.962940 -3.621456 2.439286 25.711950 2.192844 -23.093165 -9.158389 -15.088395 54.517285 0.682276 33.458402 -28.604868 -0.120400 2.236900 -6.160700 5.092258 2.663360 4.590854 -15.491145 4.133180 15.677840 2.850226 2.310390 -12.622057 -6.012997 -11.414913 -22.952779 8.255263 -13.552616 40.629555 -0.051800 -3.393400 18.058600 4.155520 -6.661950 0.642387 -82.009474 14.577982 34.457206 50.424475 -46.892784 -24.123210 0.879937 0.258022 -34.871142 30.302559 13.374026 7.686800 -7.125000 0.000000 0.000000 1.892200 45.766500 0.035800 2.503816 11.011574 0.297739 88.135479 12.026297 28.583747 -18.588055 17.801043 -3.241022 0.419071 -0.498350 -2.283445 -25.896545 -4.029223 1.699900 7.125000 0.000000 0.000000 0.261400 -33.818900 0.071700 
-11.567555 17.276283 21.562668 -18.940535 75.643083 -14.575047 0.564772 2.391931 2.645127 -7.219758 -8.317158 -18.767988 9.918375 16.442125 59.124787 5.377830 -21.181623 -47.801751 1.013000 -6.403600 -17.960000 -4.981304 -3.637431 2.393966 26.028355 1.979870 -22.958713 -9.052203 -15.014566 54.109900 0.680201 33.593041 -28.698241 -0.109200 2.130400 -5.866300 5.288924 2.801101 4.572077 -15.595798 4.333436 15.573351 2.700787 2.389976 -12.584787 -6.034075 -11.601578 -23.025051 8.482162 -13.882527 40.590777 -0.035000 -3.485000 18.079200 4.197854 -6.635308 0.652278 -81.637422 15.265410 33.523406 51.841356 -47.541214 -25.208802 0.876663 0.286102 -35.164373 30.139384 14.228161 8.079500 -7.125000 0.000000 0.000000 1.642000 46.686100 0.068300 2.463598 11.002780 0.323643 87.797989 12.457471 29.196089 -18.976931 18.285311 -3.383289 0.418443 -0.464887 -3.006787 -25.842195 -4.320919 1.854100 7.125000 0.000000 0.000000 0.320300 -34.176400 0.085100 
-11.521450 17.286477 21.907476 -19.586415 75.863373 -14.816469 0.558228 2.371702 2.611885 -6.894503 -8.775582 -19.085673 9.966283 16.483183 59.322122 5.110796 -21.574936 -46.922995 0.981600 -6.306500 -17.676400 -5.000735 -3.642859 2.329757 26.218197 1.883710 -22.899443 -8.933817 -14.935002 53.665627 0.617569 33.602940 -29.000275 -0.104700 2.086500 -5.744700 5.331178 3.009408 4.554964 -15.900888 4.587661 15.229940 2.665871 2.524024 -12.547119 -6.128595 -11.837811 -23.031299 8.824178 -14.300559 40.586166 0.026700 -3.602600 18.116100 4.256083 -6.599085 0.673309 -81.251120 15.990780 32.791571 53.321528 -48.171840 -26.372381 0.879036 0.309575 -35.899939 30.136661 14.561001 8.249800 -7.125000 0.000000 0.000000 1.592000 47.055200 0.080800 2.449274 10.990538 0.364568 87.412833 12.687111 29.989453 -19.467705 18.905718 -3.579554 0.423302 -0.427248 -3.979631 -26.041674 -4.672372 2.060200 7.125000 0.000000 0.000000 0.168600 -34.611300 0.043000 
-11.472352 17.302188 22.246017 -21.284267 76.093482 -16.165706 0.543677 2.339886 2.584281 -6.300711 -9.226394 -19.372603 10.013141 16.523203 59.508418 4.818128 -21.839569 -45.912444 0.987300 -6.324200 -17.728100 -5.027140 -3.654512 2.259110 26.620977 1.699162 -22.694117 -8.797296 -14.836605 53.130513 0.569950 33.626275 -29.215677 -0.101200 2.051500 -5.648000 5.529958 3.161791 4.656826 -15.892461 4.793040 14.900234 2.492369 2.617410 -12.599847 -6.245552 -12.060193 -23.027223 9.120128 -14.678870 40.639029 0.075100 -3.709200 18.145000 4.277341 -6.554771 0.691702 -80.650470 16.845737 32.465039 55.144524 -48.884837 -27.852046 0.880967 0.338095 -36.839290 30.087406 14.949999 8.432500 -7.125000 0.000000 0.000000 1.486900 47.479300 0.091000 2.424424 10.954933 0.408920 86.898338 12.779043 30.698179 -20.012458 19.583076 -3.795378 0.403449 -0.394356 -4.776161 -25.973157 -4.713575 2.088700 7.125000 0.000000 0.000000 0.247300 -34.690700 0.062600 
